<svg xmlns="http://www.w3.org/2000/svg" viewBox="0 0 64 64" role="img" aria-label="Anime Magnet Shelf favicon">
  <defs>
    <linearGradient id="bg" x1="10" y1="8" x2="54" y2="58" gradientUnits="userSpaceOnUse">
      <stop stop-color="#1f2b38"/>
      <stop offset="1" stop-color="#101419"/>
    </linearGradient>
    <linearGradient id="magnet" x1="16" y1="18" x2="49" y2="51" gradientUnits="userSpaceOnUse">
      <stop stop-color="#7af0dc"/>
      <stop offset="1" stop-color="#38bfa9"/>
    </linearGradient>
  </defs>

  <rect width="64" height="64" rx="14" fill="url(#bg)"/>
  <path d="M21 18h9v20c0 4.5 3.5 8 8 8s8-3.5 8-8V18h9v20c0 9.5-7.5 17-17 17S21 47.5 21 38V18Z" fill="url(#magnet)"/>
  <path d="M21 18h9v8h-9v-8Zm25 0h9v8h-9v-8Z" fill="#ffb86b"/>
  <path d="M13 16l2.4 5.1 5.1 2.4-5.1 2.4L13 31l-2.4-5.1-5.1-2.4 5.1-2.4L13 16Z" fill="#f7fafc"/>
  <path d="M48 8l1.5 3.2 3.2 1.5-3.2 1.5L48 17.4l-1.5-3.2-3.2-1.5 3.2-1.5L48 8Z" fill="#65d7c2"/>
  <circle cx="38" cy="38" r="4" fill="#101419" opacity=".42"/>
</svg>
